{
  "accessors": [
    {
      "bufferView": 2,
      "componentType": 5126,
      "count": 65532,
      "max": [
        0.923881471157074,
        1.0000087022781372,
        2.0
      ],
      "min": [
        -0.9669822454452515,
        -0.919118344783783,
        0.0
      ],
      "type": "VEC3"
    },
    {
      "bufferView": 2,
      "byteOffset": 786384,
      "componentType": 5126,
      "count": 65532,
      "max": [
        0.9238824248313904,
        0.9999999403953552,
        1.0
      ],
      "min": [
        -0.9669879078865051,
        -0.9191349148750305,
        -1.0
      ],
      "type": "VEC3"
    },
    {
      "bufferView": 3,
      "componentType": 5126,
      "count": 65532,
      "max": [
        1.0,
        1.0,
        0.0005610274965874851,
        1.0
      ],
      "min": [
        -1.0,
        -0.9999988675117493,
        -0.0030779836233705282,
        1.0
      ],
      "type": "VEC4"
    },
    {
      "bufferView": 1,
      "componentType": 5126,
      "count": 65532,
      "max": [
        3.000002861022949,
        1.5
      ],
      "min": [
        -1.0000016689300537,
        -0.5
      ],
      "type": "VEC2"
    },
    {
      "bufferView": 0,
      "componentType": 5125,
      "count": 387273,
      "type": "SCALAR"
    },
    {
      "bufferView": 2,
      "byteOffset": 1572768,
      "componentType": 5126,
      "count": 65532,
      "max": [
        1.000002145767212,
        1.0000087022781372,
        2.0
      ],
      "min": [
        -1.0000066757202148,
        -1.0000044107437134,
        0.0
      ],
      "type": "VEC3"
    },
    {
      "bufferView": 2,
      "byteOffset": 2359152,
      "componentType": 5126,
      "count": 65532,
      "max": [
        1.0,
        0.9999999403953552,
        1.0
      ],
      "min": [
        -1.0,
        -1.0,
        -1.0
      ],
      "type": "VEC3"
    },
    {
      "bufferView": 3,
      "byteOffset": 1048512,
      "componentType": 5126,
      "count": 65532,
      "max": [
        1.0,
        1.0,
        0.0030686091631650925,
        1.0
      ],
      "min": [
        -1.0,
        -1.0,
        -0.002221611561253667,
        1.0
      ],
      "type": "VEC4"
    },
    {
      "bufferView": 1,
      "byteOffset": 524256,
      "componentType": 5126,
      "count": 65532,
      "max": [
        3.000002861022949,
        1.5
      ],
      "min": [
        -1.0000016689300537,
        -0.5
      ],
      "type": "VEC2"
    },
    {
      "bufferView": 0,
      "byteOffset": 1549092,
      "componentType": 5125,
      "count": 385479,
      "type": "SCALAR"
    },
    {
      "bufferView": 2,
      "byteOffset": 3145536,
      "componentType": 5126,
      "count": 2685,
      "max": [
        0.8986762762069702,
        0.3027547001838684,
        2.0
      ],
      "min": [
        -0.9329989552497864,
        -0.9329967498779297,
        1.35989511013031
      ],
      "type": "VEC3"
    },
    {
      "bufferView": 2,
      "byteOffset": 3177756,
      "componentType": 5126,
      "count": 2685,
      "max": [
        0.8986639976501465,
        0.3027540445327759,
        1.0
      ],
      "min": [
        -0.932985782623291,
        -0.9329878687858582,
        0.35988739132881165
      ],
      "type": "VEC3"
    },
    {
      "bufferView": 3,
      "byteOffset": 2097024,
      "componentType": 5126,
      "count": 2685,
      "max": [
        1.0,
        1.0,
        0.002463277895003557,
        1.0
      ],
      "min": [
        -0.9999985694885254,
        -0.999997615814209,
        -0.0007046173559501767,
        1.0
      ],
      "type": "VEC4"
    },
    {
      "bufferView": 1,
      "byteOffset": 1048512,
      "componentType": 5126,
      "count": 2685,
      "max": [
        2.992190361022949,
        1.5
      ],
      "min": [
        -1.0000016689300537,
        0.7343736886978149
      ],
      "type": "VEC2"
    },
    {
      "bufferView": 0,
      "byteOffset": 3091008,
      "componentType": 5125,
      "count": 10608,
      "type": "SCALAR"
    }
  ],
  "asset": {
    "extras": {
      "author": "-Arthur- (https://sketchfab.com/.arthur)",
      "license": "CC-BY-4.0 (http://creativecommons.org/licenses/by/4.0/)",
      "source": "https://sketchfab.com/3d-models/seamless-rustic-stone-wall-floor-texture-015-80b50e9a48af49839a648c570a6685cf",
      "title": "Seamless Rustic Stone Wall & Floor Texture 015"
    },
    "generator": "Sketchfab-0.13.0",
    "version": "2.0"
  },
  "bufferViews": [
    {
      "buffer": 0,
      "byteLength": 3133440,
      "name": "floatBufferViews",
      "target": 34963
    },
    {
      "buffer": 0,
      "byteLength": 1069992,
      "byteOffset": 3133440,
      "byteStride": 8,
      "name": "floatBufferViews",
      "target": 34962
    },
    {
      "buffer": 0,
      "byteLength": 3209976,
      "byteOffset": 4203432,
      "byteStride": 12,
      "name": "floatBufferViews",
      "target": 34962
    },
    {
      "buffer": 0,
      "byteLength": 2139984,
      "byteOffset": 7413408,
      "byteStride": 16,
      "name": "floatBufferViews",
      "target": 34962
    }
  ],
  "buffers": [
    {
      "byteLength": 9553392,
      "uri": "scene.bin"
    }
  ],
  "images": [
    {
      "uri": "textures/texture_baseColor.png"
    },
    {
      "uri": "textures/texture_metallicRoughness.png"
    },
    {
      "uri": "textures/texture_normal.png"
    }
  ],
  "materials": [
    {
      "doubleSided": true,
      "name": "texture",
      "normalTexture": {
        "index": 2
      },
      "occlusionTexture": {
        "index": 1
      },
      "pbrMetallicRoughness": {
        "baseColorTexture": {
          "index": 0
        },
        "metallicFactor": 0.0,
        "metallicRoughnessTexture": {
          "index": 1
        }
      }
    }
  ],
  "meshes": [
    {
      "name": "Sphere_texture_0",
      "primitives": [
        {
          "attributes": {
            "NORMAL": 1,
            "POSITION": 0,
            "TANGENT": 2,
            "TEXCOORD_0": 3
          },
          "indices": 4,
          "material": 0,
          "mode": 4
        }
      ]
    },
    {
      "name": "Sphere_texture_0",
      "primitives": [
        {
          "attributes": {
            "NORMAL": 6,
            "POSITION": 5,
            "TANGENT": 7,
            "TEXCOORD_0": 8
          },
          "indices": 9,
          "material": 0,
          "mode": 4
        }
      ]
    },
    {
      "name": "Sphere_texture_0",
      "primitives": [
        {
          "attributes": {
            "NORMAL": 11,
            "POSITION": 10,
            "TANGENT": 12,
            "TEXCOORD_0": 13
          },
          "indices": 14,
          "material": 0,
          "mode": 4
        }
      ]
    }
  ],
  "nodes": [
    {
      "children": [
        1
      ],
      "matrix": [
        1.0,
        0.0,
        0.0,
        0.0,
        0.0,
        2.220446049250313e-16,
        -1.0,
        0.0,
        0.0,
        1.0,
        2.220446049250313e-16,
        0.0,
        0.0,
        0.0,
        0.0,
        1.0
      ],
      "name": "Sketchfab_model"
    },
    {
      "children": [
        2
      ],
      "matrix": [
        0.009999999776482582,
        0.0,
        0.0,
        0.0,
        0.0,
        0.0,
        0.009999999776482582,
        0.0,
        0.0,
        -0.009999999776482582,
        0.0,
        0.0,
        0.0,
        0.0,
        0.0,
        1.0
      ],
      "name": "Sphere-253k-Tris.fbx"
    },
    {
      "children": [
        3
      ],
      "name": "RootNode"
    },
    {
      "children": [
        4,
        5,
        6
      ],
      "matrix": [
        100.0,
        0.0,
        0.0,
        0.0,
        0.0,
        -2.8212996916465727e-05,
        -99.99999999999602,
        0.0,
        0.0,
        99.99999999999602,
        -2.8212996916465727e-05,
        0.0,
        0.0,
        0.0,
        0.0,
        1.0
      ],
      "name": "Sphere"
    },
    {
      "mesh": 0,
      "name": "Sphere_texture_0"
    },
    {
      "mesh": 1,
      "name": "Sphere_texture_0"
    },
    {
      "mesh": 2,
      "name": "Sphere_texture_0"
    }
  ],
  "samplers": [
    {
      "magFilter": 9729,
      "minFilter": 9987,
      "wrapS": 10497,
      "wrapT": 10497
    }
  ],
  "scene": 0,
  "scenes": [
    {
      "name": "Sketchfab_Scene",
      "nodes": [
        0
      ]
    }
  ],
  "textures": [
    {
      "sampler": 0,
      "source": 0
    },
    {
      "sampler": 0,
      "source": 1
    },
    {
      "sampler": 0,
      "source": 2
    }
  ]
}
